<svg id="Layer_1" data-name="Layer 1" xmlns="http://www.w3.org/2000/svg" viewBox="0 0 112 13"><defs><style>.cls-1{fill:#2b2b2b;}</style></defs><title>spikes</title><polygon class="cls-1" points="0 13 6.11 0 12.22 13 0 13"/><polygon class="cls-1" points="13.24 13 19.34 0 25.45 13 13.24 13"/><polygon class="cls-1" points="25.45 13 31.56 0 37.67 13 25.45 13"/><polygon class="cls-1" points="37.67 13 43.78 0 49.89 13 37.67 13"/><polygon class="cls-1" points="49.89 13 56 0 62.11 13 49.89 13"/><polygon class="cls-1" points="63.13 13 69.24 0 75.34 13 63.13 13"/><polygon class="cls-1" points="75.34 13 81.45 0 87.56 13 75.34 13"/><polygon class="cls-1" points="87.56 13 93.67 0 99.78 13 87.56 13"/><polygon class="cls-1" points="99.78 13 105.89 0 112 13 99.78 13"/></svg>