<svg id="Layer_1" data-name="Layer 1" xmlns="http://www.w3.org/2000/svg" viewBox="0 0 53.68 53.68"><defs><style>.cls-1{fill:#a1f6ff;}.cls-2,.cls-3{fill:none;stroke:#2b2b2b;stroke-miterlimit:10;}.cls-2{stroke-width:2px;}.cls-3{stroke-linecap:round;stroke-width:0.75px;}</style></defs><title>dice-enter</title><rect class="cls-1" width="53.68" height="53.68"/><path class="cls-2" d="M20.71,11.68H14.47a1.41,1.41,0,0,0-1.41,1.4V27.79a1.41,1.41,0,0,0,1.41,1.41h4.84a1.4,1.4,0,0,1,1.4,1.4V42.52a1.41,1.41,0,0,0,1.41,1.4H37.56A1.41,1.41,0,0,0,39,42.52V13.08a1.41,1.41,0,0,0-1.41-1.4Z"/><path class="cls-3" d="M29.37,17.83h3.2a1.11,1.11,0,0,1,1.1,1.1v1.46a1.1,1.1,0,0,1-1.1,1.1H27.21"/><polyline class="cls-3" points="28.56 19.86 26.69 21.36 28.56 23.13"/></svg>