<svg id="Layer_1" data-name="Layer 1" xmlns="http://www.w3.org/2000/svg" viewBox="0 0 373.26 287.86"><defs><style>.cls-1{fill:#a1f6ff;}</style></defs><title>logonone</title><path class="cls-1" d="M209.61,0H151.3V21H122.14V222.76H151.3v65.1h29.16V246h29.15V222.76h29.16V44.85H209.61Zm0,182.5H180.46v22.64H151.3V77.64h29.16V63.49h29.15Z"/><polygon class="cls-1" points="330.28 0 303.45 0 301.13 0 238.77 0 238.77 31.74 301.13 31.74 301.13 222.76 330.28 222.76 330.28 31.74 373.26 31.74 373.26 0 330.28 0"/><polygon class="cls-1" points="29.16 0 29.16 26.79 0 26.79 0 215.11 29.16 215.11 58.31 215.11 58.31 287.86 87.47 287.86 87.47 140.63 58.31 140.63 58.31 157.61 29.16 157.61 29.16 71.07 58.31 71.07 58.31 89.71 87.47 89.71 87.47 0 58.31 0 29.16 0"/></svg>