<svg id="Layer_1" data-name="Layer 1" xmlns="http://www.w3.org/2000/svg" viewBox="0 0 1920.7 1080"><defs><style>.cls-1{fill:#595858;}.cls-2{fill:#2b2b2b;}.cls-3{fill:#efff55;}.cls-4{fill:#ff8500;}</style></defs><title>overlay-mountain-hills</title><polygon class="cls-1" points="1516.31 860.17 1516.31 763.77 1396.58 763.77 1396.58 988.52 807.66 988.52 807.66 1118.97 1396.58 1118.97 1478.22 1118.97 1516.31 1118.97 1662.12 1118.97 1662.12 860.17 1516.31 860.17"/><polygon class="cls-2" points="388.9 -7.7 388.53 -7.7 290.51 -7.7 290.51 124.55 388.53 124.55 388.9 124.55 486.92 124.55 486.92 -7.7 388.9 -7.7"/><polygon class="cls-2" points="1506.81 -7.7 1408.42 -7.7 1408.42 124.55 1506.81 124.55 1506.81 71.02 1605.2 71.02 1605.2 -7.7 1506.81 -7.7"/><rect class="cls-2" x="486.92" y="1014.48" width="98.39" height="71.8"/><polygon class="cls-2" points="1091.97 965.66 1091.6 965.66 992.49 965.66 992.49 1014.48 776.47 1014.48 776.47 965.66 677.21 965.66 677.21 914.58 577.72 914.58 577.72 1014.48 284.06 1014.48 284.06 914.58 184.58 914.58 184.58 95.94 85.09 95.94 85.09 427.02 -14.4 427.02 -14.4 1087.69 85.09 1087.69 184.58 1087.69 284.06 1087.69 284.06 1086.28 577.72 1086.28 676.98 1086.28 677.21 1086.28 776.47 1086.28 992.49 1086.28 1007.52 1086.28 1091.6 1086.28 1091.97 1086.28 1191.08 1086.28 1191.08 965.66 1091.97 965.66"/><polygon class="cls-2" points="837.41 972.53 837.79 972.53 935.8 972.53 935.8 1021.35 1149.43 1021.35 1149.43 972.53 1247.6 972.53 1247.6 921.46 1345.98 921.46 1345.98 1021.35 1636.4 1021.35 1636.4 921.46 1734.79 921.46 1734.79 102.81 1833.17 102.81 1833.17 433.89 1931.56 433.89 1931.56 1094.57 1833.17 1094.57 1734.79 1094.57 1636.4 1094.57 1636.4 1093.15 1345.98 1093.15 1247.82 1093.15 1247.6 1093.15 1149.43 1093.15 935.8 1093.15 920.93 1093.15 837.79 1093.15 837.41 1093.15 739.4 1093.15 739.4 972.53 837.41 972.53"/><rect class="cls-1" x="315.69" y="-8.29" width="75.73" height="79.89"/><rect class="cls-1" x="1014.97" y="1014.24" width="141.77" height="78.91"/><polygon class="cls-1" points="663.31 1020.17 663.31 987.91 600.63 987.91 600.63 1063.13 292.34 1063.13 292.34 1106.78 600.63 1106.78 643.37 1106.78 663.31 1106.78 739.64 1106.78 739.64 1020.17 663.31 1020.17"/><polygon class="cls-1" points="1562.91 -7.7 1488.95 -7.7 1488.95 -12.19 1426.28 -12.19 1426.28 97.46 1488.95 97.46 1488.95 32.24 1562.91 32.24 1562.91 -7.7"/><rect class="cls-1" x="250.59" y="941.37" width="111.95" height="145.73"/><polygon class="cls-1" points="185.18 512.81 94.47 512.81 94.47 1087.1 185.18 1087.1 275.89 1087.1 275.89 307.42 185.18 307.42 185.18 512.81"/><polygon class="cls-2" points="1754.13 425.91 1754.13 185.58 1659.43 185.58 1659.43 930.08 1561.04 930.08 1462.65 930.08 1462.65 1106.78 1561.04 1106.78 1659.43 1106.78 1659.43 1105.47 1754.13 1105.47 1848.84 1105.47 1848.84 425.91 1754.13 425.91"/><polygon class="cls-1" points="1929.4 992.79 1929.4 665.9 1786.07 665.9 1786.07 992.79 1571.05 992.79 1571.05 1094.57 1786.07 1094.57 1929.4 1094.57 1931.56 1094.57 1931.56 992.79 1929.4 992.79"/><rect class="cls-3" x="-0.85" y="925.22" width="100.16" height="161.05"/><rect class="cls-4" x="10.73" y="998.93" width="79.04" height="87.35"/><rect class="cls-3" x="99.31" y="998.93" width="100.16" height="87.35"/><rect class="cls-4" x="110.89" y="1038.9" width="79.04" height="47.37"/><rect class="cls-3" x="193.9" y="798.81" width="111.11" height="142.21"/><rect class="cls-4" x="206.75" y="882.94" width="87.68" height="58.09"/><rect class="cls-3" x="12.37" y="349.62" width="55.56" height="117.43"/><rect class="cls-4" x="18.79" y="403.36" width="43.84" height="63.69"/><rect class="cls-3" x="96.47" y="65.83" width="76.56" height="117.43"/><rect class="cls-4" x="105.32" y="119.57" width="60.42" height="63.69"/><rect class="cls-3" x="1736.59" y="169.35" width="49.92" height="93.52"/><rect class="cls-4" x="1742.36" y="212.15" width="39.39" height="50.72"/><rect class="cls-3" x="1320.35" y="1000.76" width="49.92" height="85.3"/><rect class="cls-4" x="1326.12" y="1039.8" width="39.39" height="46.26"/><rect class="cls-3" x="1625.47" y="822.77" width="111.11" height="107.1"/><rect class="cls-4" x="1638.32" y="872.42" width="87.68" height="58.09"/><rect class="cls-3" x="888.84" y="908.56" width="111.11" height="107.1"/><rect class="cls-4" x="898.12" y="956.77" width="87.68" height="58.09"/><rect class="cls-3" x="1814.67" y="360.54" width="111.11" height="117.43"/><rect class="cls-4" x="1827.52" y="414.28" width="87.68" height="63.69"/></svg>